<svg id="Layer_9" data-name="Layer 9" xmlns="http://www.w3.org/2000/svg" viewBox="0 0 243.17 243.17"><title>CB FINAL LOGO white-nobg</title><path d="M185.44,61.15,160.59,86l-8.29-8.29L144,69.44l-8.29,8.29L127.45,86l-8.29,8.27-8.29,8.29L94.31,119.14,86,127.42l-8.29,8.27L69.47,144l8.29,8.29L86,160.56l8.27,8.27L86,177.12l-8.29,8.29-8.29,8.29-46-46a7.23,7.23,0,0,1,0-7.31L28,135.7l8.29-8.29,8.29-8.29,8.29-8.29,8.29-8.27,8.27-8.29L77.74,86,86,77.71l8.29-8.29,8.29-8.27,8.27-8.29,8.29-8.29,8.29-8.29L135.73,28l4.6-4.6a7.23,7.23,0,0,1,7.45.09L152.3,28l8.29,8.29,8.29,8.29,8.29,8.29Z" transform="translate(-22.42 -22.42)" style="fill:#f4f4f4"/><path d="M264.51,140.21,260,135.7l-8.29-8.29-8.29-8.29-8.29-8.29-8.27-8.27-8.29-8.29L210.29,86,202,77.71l-8.29-8.29-33.14,33.14-8.27,8.29L144,119.13,119.16,144l-8.27,8.29-8.29,8.27,8.29,8.29,8.29,8.29,8.29,8.29,8.29-8.27,8.27-8.29,8.29,8.29,8.27,8.27,8.29,8.29L160.59,202l-8.29,8.27L144,218.53,102.6,177.12l-8.29,8.29L86,193.69,77.74,202l62.62,62.62a7.23,7.23,0,0,0,7.31,0l29.49-29.49,8.29-8.27,8.27-8.29,2.83-2.83,3.22-3.22a6.78,6.78,0,0,0,.69-3v-7.12a1.93,1.93,0,0,1,1.93-1.93h7.12a6.78,6.78,0,0,0,3-.69l3.22-3.22,2.83-2.83,8.29-8.27,8.27-8.29,29.46-29.46A7.23,7.23,0,0,0,264.51,140.21Zm-54.23,12.06L202,160.56l-8.29,8.27L168.87,144l8.29-8.27,8.27-8.29,8.29-8.29L218.56,144Z" transform="translate(-22.42 -22.42)" style="fill:#f4f4f4"/></svg>